<svg width="18" height="24" viewBox="0 0 18 24" fill="none" xmlns="http://www.w3.org/2000/svg">
<path d="M16.5 0H1.5C1.10218 0 0.720644 0.158035 0.43934 0.43934C0.158035 0.720644 0 1.10218 0 1.5V22.5C0 22.8978 0.158035 23.2794 0.43934 23.5607C0.720644 23.842 1.10218 24 1.5 24H16.5C16.8978 24 17.2794 23.842 17.5607 23.5607C17.842 23.2794 18 22.8978 18 22.5V1.5C18 1.10218 17.842 0.720644 17.5607 0.43934C17.2794 0.158035 16.8978 0 16.5 0ZM5.25 18H3.75V16.5H5.25V18ZM5.25 15H3.75V13.5H5.25V15ZM5.25 12H3.75V10.5H5.25V12ZM5.25 9H3.75V7.5H5.25V9ZM5.25 6H3.75V4.5H5.25V6ZM14.25 18H6.75V16.5H14.25V18ZM14.25 15H6.75V13.5H14.25V15ZM14.25 12H6.75V10.5H14.25V12ZM14.25 9H6.75V7.5H14.25V9ZM14.25 6H6.75V4.5H14.25V6Z" fill="black"/>
</svg>
