<svg width="50" height="51" viewBox="0 0 50 51" fill="none" xmlns="http://www.w3.org/2000/svg">
<path d="M25.3497 0.00232286C11.2903 -0.187572 -0.187572 11.2903 0.00232286 25.3497C0.189814 38.8335 11.1689 49.8125 24.6526 50C38.7145 50.1923 50.1899 38.7145 49.9976 24.655C49.8125 11.1689 38.8335 0.189814 25.3497 0.00232286ZM23.3318 23.1347L29.5274 16.0437C29.8631 15.6596 30.3375 15.4245 30.8465 15.3903C31.3554 15.356 31.8571 15.5253 32.2412 15.861C32.6253 16.1966 32.8604 16.6711 32.8946 17.18C32.9289 17.689 32.7596 18.1907 32.4239 18.5748L26.2283 25.6658C26.0621 25.856 25.8601 26.0116 25.6337 26.1237C25.4074 26.2358 25.1612 26.3022 24.9092 26.3192C24.6572 26.3362 24.4043 26.3033 24.165 26.2226C23.9257 26.1418 23.7046 26.0147 23.5145 25.8485C23.3243 25.6823 23.1687 25.4803 23.0566 25.2539C22.9445 25.0276 22.878 24.7814 22.8611 24.5294C22.8441 24.2774 22.8769 24.0245 22.9577 23.7852C23.0385 23.5459 23.1656 23.3249 23.3318 23.1347ZM18.6613 34.0536C18.3007 34.414 17.8118 34.6164 17.302 34.6164C16.7922 34.6164 16.3033 34.414 15.9427 34.0536L10.1797 28.2847C10.0012 28.106 9.85966 27.8939 9.76311 27.6606C9.66657 27.4272 9.61693 27.1771 9.61705 26.9245C9.61716 26.672 9.66701 26.4219 9.76377 26.1886C9.86052 25.9553 10.0023 25.7434 10.1809 25.5648C10.3596 25.3863 10.5717 25.2448 10.8051 25.1482C11.0384 25.0517 11.2885 25.002 11.5411 25.0022C11.7937 25.0023 12.0437 25.0521 12.277 25.1489C12.5103 25.2456 12.7223 25.3874 12.9008 25.5661L18.6697 31.335C19.029 31.6967 19.2299 32.1863 19.2283 32.6961C19.2267 33.2059 19.0228 33.6942 18.6613 34.0536ZM39.9103 18.5748L26.4638 33.9587C26.2906 34.1572 26.0784 34.318 25.8404 34.4311C25.6025 34.5442 25.3438 34.6071 25.0805 34.6161H25.0156C24.7629 34.6162 24.5127 34.5664 24.2792 34.4697C24.0458 34.373 23.8337 34.2312 23.6551 34.0524L17.8933 28.2835C17.5328 27.9226 17.3304 27.4334 17.3306 26.9233C17.3309 26.4132 17.5337 25.9242 17.8945 25.5636C18.2554 25.2031 18.7446 25.0007 19.2547 25.001C19.7648 25.0012 20.2538 25.204 20.6144 25.5648L24.1959 29.15C24.289 29.2432 24.4003 29.3162 24.5228 29.3645C24.6452 29.4129 24.7764 29.4356 24.908 29.4312C25.0396 29.4268 25.1689 29.3954 25.2879 29.339C25.4069 29.2826 25.513 29.2023 25.5997 29.1031L37.0174 16.0437C37.3531 15.6596 37.8276 15.4245 38.3365 15.3903C38.8455 15.356 39.3472 15.5253 39.7313 15.861C40.1154 16.1966 40.3504 16.6711 40.3847 17.18C40.4189 17.689 40.2496 18.1907 39.9139 18.5748H39.9103Z" fill="#F10631"/>
</svg>
