<svg width="16" height="16" viewBox="0 0 16 16" fill="none" xmlns="http://www.w3.org/2000/svg">
<path fill-rule="evenodd" clip-rule="evenodd" d="M4.64598 4.64599C4.69242 4.59943 4.7476 4.56249 4.80834 4.53728C4.86909 4.51207 4.93421 4.4991 4.99998 4.4991C5.06575 4.4991 5.13087 4.51207 5.19161 4.53728C5.25236 4.56249 5.30753 4.59943 5.35398 4.64599L7.99998 7.29299L10.646 4.64599C10.6925 4.59951 10.7477 4.56263 10.8084 4.53747C10.8691 4.51231 10.9342 4.49936 11 4.49936C11.0657 4.49936 11.1308 4.51231 11.1916 4.53747C11.2523 4.56263 11.3075 4.59951 11.354 4.64599C11.4005 4.69248 11.4373 4.74767 11.4625 4.80841C11.4877 4.86915 11.5006 4.93425 11.5006 4.99999C11.5006 5.06574 11.4877 5.13084 11.4625 5.19158C11.4373 5.25232 11.4005 5.30751 11.354 5.35399L8.70698 7.99999L11.354 10.646C11.4005 10.6925 11.4373 10.7477 11.4625 10.8084C11.4877 10.8691 11.5006 10.9342 11.5006 11C11.5006 11.0657 11.4877 11.1308 11.4625 11.1916C11.4373 11.2523 11.4005 11.3075 11.354 11.354C11.3075 11.4005 11.2523 11.4374 11.1916 11.4625C11.1308 11.4877 11.0657 11.5006 11 11.5006C10.9342 11.5006 10.8691 11.4877 10.8084 11.4625C10.7477 11.4374 10.6925 11.4005 10.646 11.354L7.99998 8.70699L5.35398 11.354C5.30749 11.4005 5.2523 11.4374 5.19156 11.4625C5.13082 11.4877 5.06572 11.5006 4.99998 11.5006C4.93423 11.5006 4.86913 11.4877 4.80839 11.4625C4.74766 11.4374 4.69247 11.4005 4.64598 11.354C4.59949 11.3075 4.56261 11.2523 4.53745 11.1916C4.5123 11.1308 4.49935 11.0657 4.49935 11C4.49935 10.9342 4.5123 10.8691 4.53745 10.8084C4.56261 10.7477 4.59949 10.6925 4.64598 10.646L7.29298 7.99999L4.64598 5.35399C4.59941 5.30755 4.56247 5.25237 4.53727 5.19163C4.51206 5.13088 4.49908 5.06576 4.49908 4.99999C4.49908 4.93423 4.51206 4.8691 4.53727 4.80836C4.56247 4.74761 4.59941 4.69244 4.64598 4.64599Z" fill="white"/>
</svg>
