<svg width="14" height="14" viewBox="0 0 14 14" fill="none" xmlns="http://www.w3.org/2000/svg">
<circle cx="7" cy="7" r="7" fill="#F10631"/>
<path d="M8.59553 7.08C8.93687 7.18133 9.1982 7.34667 9.37953 7.576C9.56087 7.80533 9.65153 8.088 9.65153 8.424C9.65153 8.92 9.4622 9.30667 9.08353 9.584C8.7102 9.86133 8.1742 10 7.47553 10H4.71553V4.4H7.32353C7.9742 4.4 8.48087 4.52533 8.84353 4.776C9.2062 5.02667 9.38753 5.384 9.38753 5.848C9.38753 6.12533 9.3182 6.37067 9.17953 6.584C9.04087 6.792 8.8462 6.95733 8.59553 7.08ZM6.00353 6.72H7.21153C7.4942 6.72 7.70753 6.664 7.85153 6.552C7.99553 6.43467 8.06753 6.264 8.06753 6.04C8.06753 5.82133 7.99287 5.65333 7.84353 5.536C7.69953 5.41867 7.48887 5.36 7.21153 5.36H6.00353V6.72ZM7.42753 9.04C8.03553 9.04 8.33953 8.8 8.33953 8.32C8.33953 7.856 8.03553 7.624 7.42753 7.624H6.00353V9.04H7.42753Z" fill="#D5AB08"/>
</svg>
