<svg width="12" height="8" viewBox="0 0 12 8" fill="none" xmlns="http://www.w3.org/2000/svg">
<path fill-rule="evenodd" clip-rule="evenodd" d="M4.47422 0.000388716C4.47422 0.000388716 3.18395 -0.0503223 1.79193 1.00668C1.79193 1.00668 0.399902 3.49784 0.399902 6.56901C0.399902 6.56901 1.17148 7.94771 3.28724 8C3.28724 8 3.59632 7.57768 3.90845 7.20606C2.71995 6.83524 2.25746 6.09359 2.25746 6.09359L2.65463 6.30436C2.73142 6.33688 2.8085 6.36996 2.88614 6.40328C3.98323 6.87408 5.19086 7.39231 7.23624 7.04601L7.26829 7.0386C7.72012 6.93415 8.17268 6.82954 8.62447 6.6221C8.70732 6.57844 8.79548 6.53478 8.88822 6.48885L8.88826 6.48883C9.13209 6.36808 9.40784 6.23152 9.7021 6.03813C9.7021 6.03813 9.23885 6.77978 8.00099 7.1506C8.25615 7.51983 8.6146 7.94295 8.6146 7.94295C10.3488 7.904 11.2142 6.97138 11.4958 6.66796C11.5578 6.60107 11.5915 6.56476 11.5999 6.57535C11.5999 3.50894 10.1995 1.01302 10.1995 1.01302C8.94799 0.0582301 7.77847 0.0154432 7.55748 0.0146503L7.41623 0.159651C9.01482 0.635065 9.78867 1.3775 9.78867 1.3775C7.46939 0.1858 4.96405 0.117657 2.66982 1.05897C2.3091 1.21982 2.10253 1.3252 2.10253 1.3252C2.10253 1.3252 2.87487 0.531266 4.57826 0.107356L4.47422 0.000388716ZM7.56204 0.0106887L7.5871 0.00118064H7.57115L7.56204 0.0106887ZM8.50072 4.226C8.50072 4.80948 8.04738 5.28248 7.48815 5.28248C6.92893 5.28248 6.47559 4.80948 6.47559 4.226C6.47559 3.64253 6.92893 3.16953 7.48815 3.16953C8.04738 3.16953 8.50072 3.64253 8.50072 4.226ZM4.45055 5.28248C5.00978 5.28248 5.46312 4.80948 5.46312 4.226C5.46312 3.64253 5.00978 3.16953 4.45055 3.16953C3.89133 3.16953 3.43799 3.64253 3.43799 4.226C3.43799 4.80948 3.89133 5.28248 4.45055 5.28248Z" fill="#AEBCD2"/>
</svg>
