<svg width="15" height="15" viewBox="0 0 15 15" fill="none" xmlns="http://www.w3.org/2000/svg">
<path d="M14.502 1.44039C14.5954 1.53412 14.6479 1.66106 14.6479 1.79339C14.6479 1.92573 14.5954 2.05267 14.502 2.14639L13.459 3.19039L11.459 1.19039L12.502 0.146393C12.5957 0.0526577 12.7229 0 12.8555 0C12.988 0 13.1152 0.0526577 13.209 0.146393L14.502 1.43939V1.44039ZM12.752 3.89639L10.752 1.89639L3.93896 8.71039C3.88392 8.76542 3.84249 8.83253 3.81796 8.90639L3.01296 11.3204C2.99836 11.3644 2.99629 11.4116 3.00697 11.4567C3.01766 11.5018 3.04068 11.5431 3.07347 11.5759C3.10625 11.6087 3.14751 11.6317 3.19263 11.6424C3.23775 11.6531 3.28495 11.651 3.32896 11.6364L5.74296 10.8314C5.81672 10.8072 5.88383 10.7661 5.93896 10.7114L12.752 3.89739V3.89639Z" fill="white"/>
<path fill-rule="evenodd" clip-rule="evenodd" d="M0 13.0004C0 13.3982 0.158035 13.7798 0.43934 14.0611C0.720644 14.3424 1.10218 14.5004 1.5 14.5004H12.5C12.8978 14.5004 13.2794 14.3424 13.5607 14.0611C13.842 13.7798 14 13.3982 14 13.0004V7.0004C14 6.86779 13.9473 6.74061 13.8536 6.64684C13.7598 6.55308 13.6326 6.5004 13.5 6.5004C13.3674 6.5004 13.2402 6.55308 13.1464 6.64684C13.0527 6.74061 13 6.86779 13 7.0004V13.0004C13 13.133 12.9473 13.2602 12.8536 13.354C12.7598 13.4477 12.6326 13.5004 12.5 13.5004H1.5C1.36739 13.5004 1.24021 13.4477 1.14645 13.354C1.05268 13.2602 1 13.133 1 13.0004V2.0004C1 1.86779 1.05268 1.74061 1.14645 1.64684C1.24021 1.55308 1.36739 1.5004 1.5 1.5004H8C8.13261 1.5004 8.25979 1.44772 8.35355 1.35395C8.44732 1.26018 8.5 1.133 8.5 1.0004C8.5 0.867788 8.44732 0.740611 8.35355 0.646843C8.25979 0.553075 8.13261 0.500397 8 0.500397H1.5C1.10218 0.500397 0.720644 0.658432 0.43934 0.939737C0.158035 1.22104 0 1.60257 0 2.0004V13.0004Z" fill="white"/>
</svg>
