<svg width="21" height="21" viewBox="0 0 21 21" fill="none" xmlns="http://www.w3.org/2000/svg">
<circle cx="10.5" cy="10.5" r="10.5" fill="#959AA2"/>
<path d="M8.16406 16.1268L9.58594 14.6643C9.07812 14.5627 8.61094 14.3596 8.18438 14.0752L8.16406 16.1268Z" fill="#FFE62E"/>
<path d="M12.8359 4.87354L11.4141 6.33603C11.9219 6.4376 12.3891 6.64072 12.8156 6.9251L12.8359 4.87354Z" fill="#FFE62E"/>
<path d="M4.87354 12.8359L6.9251 12.8156C6.64072 12.3891 6.4376 11.9219 6.33603 11.4141L4.87354 12.8359Z" fill="#FFE62E"/>
<path d="M16.1268 8.16406L14.0752 8.18438C14.3393 8.61094 14.5424 9.07812 14.6643 9.58594L16.1268 8.16406Z" fill="#FFE62E"/>
<path d="M4.87354 8.16406L6.33603 9.58594C6.4376 9.07812 6.64072 8.61094 6.9251 8.18438L4.87354 8.16406Z" fill="#FFE62E"/>
<path d="M16.1268 12.8359L14.6643 11.4141C14.5627 11.9219 14.3596 12.3891 14.0752 12.8156L16.1268 12.8359Z" fill="#FFE62E"/>
<path d="M8.16406 4.87354L8.18438 6.9251C8.61094 6.66103 9.07812 6.45791 9.58594 6.33603L8.16406 4.87354Z" fill="#FFE62E"/>
<path d="M12.8359 16.1268L12.8156 14.0752C12.3891 14.3596 11.9219 14.5627 11.4141 14.6643L12.8359 16.1268Z" fill="#FFE62E"/>
<path d="M7.00635 12.9375L6.19385 14.8266L8.08291 14.0141C7.65635 13.7094 7.29072 13.3437 7.00635 12.9375Z" fill="#FFCE31"/>
<path d="M13.9938 8.0624L14.8063 6.17334L12.9375 6.98584C13.3438 7.29053 13.7094 7.65615 13.9938 8.0624Z" fill="#FFCE31"/>
<path d="M6.31562 9.74854L4.40625 10.5001L6.31562 11.2517C6.25469 11.0079 6.23438 10.7642 6.23438 10.5001C6.23438 10.236 6.25469 9.99229 6.31562 9.74854Z" fill="#FFCE31"/>
<path d="M14.6846 11.2517L16.5939 10.5001L14.6846 9.74854C14.7252 9.99229 14.7658 10.2563 14.7658 10.5001C14.7658 10.7642 14.7455 11.0079 14.6846 11.2517Z" fill="#FFCE31"/>
<path d="M8.0624 7.00635L6.17334 6.19385L6.98584 8.08291C7.29053 7.65635 7.65615 7.29072 8.0624 7.00635Z" fill="#FFCE31"/>
<path d="M12.9375 13.9938L14.8266 14.8063L14.0141 12.9172C13.7094 13.3438 13.3437 13.7094 12.9375 13.9938Z" fill="#FFCE31"/>
<path d="M11.2517 6.31562L10.5001 4.40625L9.74854 6.31562C9.99229 6.275 10.2563 6.23438 10.5001 6.23438C10.7438 6.23438 11.0079 6.25469 11.2517 6.31562Z" fill="#FFCE31"/>
<path d="M9.74854 14.6843L10.5001 16.5937L11.2517 14.6843C11.0079 14.7453 10.7642 14.7656 10.5001 14.7656C10.236 14.7656 9.99229 14.7453 9.74854 14.6843Z" fill="#FFCE31"/>
<path d="M10.5 14.3594C12.6315 14.3594 14.3594 12.6315 14.3594 10.5C14.3594 8.36853 12.6315 6.64062 10.5 6.64062C8.36853 6.64062 6.64062 8.36853 6.64062 10.5C6.64062 12.6315 8.36853 14.3594 10.5 14.3594Z" fill="#FFCE31"/>
</svg>
