<svg width="35" height="24" viewBox="0 0 35 24" fill="none" xmlns="http://www.w3.org/2000/svg">
<path d="M0 0V24L17.5 16.6875L35 24V0H0Z" fill="#F10631"/>
<path d="M1.93 6.7H2.89V8.95H5.91V6.7H6.87V12H5.91V9.78H2.89V12H1.93V6.7ZM11.0066 12.06C10.48 12.06 10.0066 11.9433 9.58664 11.71C9.16664 11.4767 8.83664 11.1567 8.59664 10.75C8.36331 10.3367 8.24664 9.87 8.24664 9.35C8.24664 8.83 8.36331 8.36667 8.59664 7.96C8.83664 7.54667 9.16664 7.22667 9.58664 7C10.0066 6.76667 10.48 6.65 11.0066 6.65C11.5333 6.65 12.0033 6.76667 12.4166 7C12.8366 7.22667 13.1633 7.54667 13.3966 7.96C13.6366 8.36667 13.7566 8.83 13.7566 9.35C13.7566 9.87 13.6366 10.3367 13.3966 10.75C13.1633 11.1567 12.8366 11.4767 12.4166 11.71C12.0033 11.9433 11.5333 12.06 11.0066 12.06ZM11.0066 11.22C11.3466 11.22 11.65 11.1433 11.9166 10.99C12.19 10.83 12.4033 10.61 12.5566 10.33C12.71 10.0433 12.7866 9.71667 12.7866 9.35C12.7866 8.98333 12.71 8.66 12.5566 8.38C12.4033 8.09333 12.19 7.87333 11.9166 7.72C11.65 7.56667 11.3466 7.49 11.0066 7.49C10.6666 7.49 10.36 7.56667 10.0866 7.72C9.81997 7.87333 9.60664 8.09333 9.44664 8.38C9.29331 8.66 9.21664 8.98333 9.21664 9.35C9.21664 9.71667 9.29331 10.0433 9.44664 10.33C9.60664 10.61 9.81997 10.83 10.0866 10.99C10.36 11.1433 10.6666 11.22 11.0066 11.22ZM18.7529 9.25C19.4396 9.42333 19.7829 9.85333 19.7829 10.54C19.7829 11.0067 19.6062 11.3667 19.2529 11.62C18.9062 11.8733 18.3862 12 17.6929 12H15.1429V6.7H17.6029C18.2296 6.7 18.7196 6.82 19.0729 7.06C19.4262 7.29333 19.6029 7.62667 19.6029 8.06C19.6029 8.34 19.5262 8.58333 19.3729 8.79C19.2262 8.99 19.0196 9.14333 18.7529 9.25ZM16.0829 8.98H17.5229C17.8896 8.98 18.1662 8.91333 18.3529 8.78C18.5462 8.64667 18.6429 8.45333 18.6429 8.2C18.6429 7.69333 18.2696 7.44 17.5229 7.44H16.0829V8.98ZM17.6229 11.26C18.0229 11.26 18.3229 11.1967 18.5229 11.07C18.7229 10.9433 18.8229 10.7467 18.8229 10.48C18.8229 10.2067 18.7296 10.0033 18.5429 9.87C18.3629 9.73667 18.0762 9.67 17.6829 9.67H16.0829V11.26H17.6229ZM23.5555 12.06C23.0288 12.06 22.5555 11.9433 22.1355 11.71C21.7155 11.4767 21.3855 11.1567 21.1455 10.75C20.9121 10.3367 20.7955 9.87 20.7955 9.35C20.7955 8.83 20.9121 8.36667 21.1455 7.96C21.3855 7.54667 21.7155 7.22667 22.1355 7C22.5555 6.76667 23.0288 6.65 23.5555 6.65C24.0821 6.65 24.5521 6.76667 24.9655 7C25.3855 7.22667 25.7121 7.54667 25.9455 7.96C26.1855 8.36667 26.3055 8.83 26.3055 9.35C26.3055 9.87 26.1855 10.3367 25.9455 10.75C25.7121 11.1567 25.3855 11.4767 24.9655 11.71C24.5521 11.9433 24.0821 12.06 23.5555 12.06ZM23.5555 11.22C23.8955 11.22 24.1988 11.1433 24.4655 10.99C24.7388 10.83 24.9521 10.61 25.1055 10.33C25.2588 10.0433 25.3355 9.71667 25.3355 9.35C25.3355 8.98333 25.2588 8.66 25.1055 8.38C24.9521 8.09333 24.7388 7.87333 24.4655 7.72C24.1988 7.56667 23.8955 7.49 23.5555 7.49C23.2155 7.49 22.9088 7.56667 22.6355 7.72C22.3688 7.87333 22.1555 8.09333 21.9955 8.38C21.8421 8.66 21.7655 8.98333 21.7655 9.35C21.7655 9.71667 21.8421 10.0433 21.9955 10.33C22.1555 10.61 22.3688 10.83 22.6355 10.99C22.9088 11.1433 23.2155 11.22 23.5555 11.22ZM32.4817 9.38C32.4817 9.45333 32.4751 9.55 32.4617 9.67H28.1617C28.2217 10.1367 28.4251 10.5133 28.7717 10.8C29.1251 11.08 29.5617 11.22 30.0817 11.22C30.7151 11.22 31.2251 11.0067 31.6117 10.58L32.1417 11.2C31.9017 11.48 31.6017 11.6933 31.2417 11.84C30.8884 11.9867 30.4917 12.06 30.0517 12.06C29.4917 12.06 28.9951 11.9467 28.5617 11.72C28.1284 11.4867 27.7917 11.1633 27.5517 10.75C27.3184 10.3367 27.2017 9.87 27.2017 9.35C27.2017 8.83667 27.3151 8.37333 27.5417 7.96C27.7751 7.54667 28.0917 7.22667 28.4917 7C28.8984 6.76667 29.3551 6.65 29.8617 6.65C30.3684 6.65 30.8184 6.76667 31.2117 7C31.6117 7.22667 31.9217 7.54667 32.1417 7.96C32.3684 8.37333 32.4817 8.84667 32.4817 9.38ZM29.8617 7.46C29.4017 7.46 29.0151 7.6 28.7017 7.88C28.3951 8.16 28.2151 8.52667 28.1617 8.98H31.5617C31.5084 8.53333 31.3251 8.17 31.0117 7.89C30.7051 7.60333 30.3217 7.46 29.8617 7.46Z" fill="white"/>
</svg>
