<svg width="18" height="18" viewBox="0 0 18 18" fill="none" xmlns="http://www.w3.org/2000/svg">
<path d="M7.81884 0.489371C8.47133 -0.163124 9.52882 -0.163124 10.1813 0.489371L17.5106 7.81981C18.1631 8.4723 18.1631 9.52867 17.5106 10.18L10.1813 17.5105C9.52882 18.163 8.47246 18.163 7.82109 17.5105L0.489525 10.1812C0.334347 10.0263 0.211235 9.84236 0.127236 9.63986C0.0432371 9.43736 0 9.22028 0 9.00105C0 8.78182 0.0432371 8.56474 0.127236 8.36224C0.211235 8.15974 0.334347 7.9758 0.489525 7.82093L7.81884 0.489371ZM9.39382 1.27686C9.28939 1.17244 9.14776 1.11378 9.00008 1.11378C8.8524 1.11378 8.71076 1.17244 8.60633 1.27686L1.27589 8.60618C1.17147 8.71061 1.11281 8.85224 1.11281 8.99992C1.11281 9.14761 1.17147 9.28924 1.27589 9.39367L8.60633 16.7241C8.71076 16.8285 8.8524 16.8872 9.00008 16.8872C9.14776 16.8872 9.28939 16.8285 9.39382 16.7241L16.7243 9.39367C16.8287 9.28924 16.8873 9.14761 16.8873 8.99992C16.8873 8.85224 16.8287 8.71061 16.7243 8.60618L9.39382 1.27574V1.27686Z" fill="#959AA2"/>
<path d="M5.91235 6.50923C5.91081 6.54556 5.91672 6.58182 5.92971 6.61578C5.9427 6.64975 5.9625 6.68069 5.9879 6.70672C6.01329 6.73275 6.04374 6.7533 6.07738 6.76713C6.11101 6.78095 6.14711 6.78775 6.18347 6.7871H7.11159C7.26684 6.7871 7.39059 6.65998 7.41084 6.50585C7.51208 5.76786 8.01833 5.23011 8.92057 5.23011C9.69232 5.23011 10.3988 5.61599 10.3988 6.5441C10.3988 7.25847 9.97806 7.58697 9.31319 8.08646C8.55608 8.63659 7.95646 9.27895 7.99921 10.3218L8.00258 10.5659C8.00376 10.6398 8.03391 10.7101 8.08653 10.7619C8.13915 10.8137 8.21001 10.8427 8.28383 10.8427H9.1962C9.27079 10.8427 9.34232 10.8131 9.39507 10.7603C9.44781 10.7076 9.47744 10.636 9.47744 10.5614V10.4433C9.47744 9.63558 9.78457 9.40045 10.6137 8.77158C11.2988 8.25071 12.0132 7.67247 12.0132 6.4586C12.0132 4.75874 10.5777 3.9375 9.00607 3.9375C7.58071 3.9375 6.01922 4.60124 5.91235 6.50923ZM7.66396 12.9925C7.66396 13.5922 8.14208 14.0354 8.8002 14.0354C9.48532 14.0354 9.95669 13.5922 9.95669 12.9925C9.95669 12.3716 9.48419 11.9351 8.79907 11.9351C8.14208 11.9351 7.66396 12.3716 7.66396 12.9925Z" fill="#959AA2"/>
</svg>
