<svg width="17" height="17" viewBox="0 0 17 17" fill="none" xmlns="http://www.w3.org/2000/svg">
<path d="M16.52 15.5582L11.9054 11.1339C13.0143 9.85756 13.5673 8.22044 13.4493 6.56314C13.3313 4.90584 12.5514 3.35596 11.2719 2.23591C9.99237 1.11586 8.31171 0.511876 6.57953 0.549611C4.84736 0.587345 3.19704 1.26389 1.9719 2.43851C0.746748 3.61312 0.0410974 5.19537 0.00173913 6.85609C-0.0376191 8.51682 0.592345 10.1282 1.76058 11.3549C2.92882 12.5817 4.54538 13.3294 6.27398 13.4425C8.00258 13.5556 9.71012 13.0255 11.0414 11.9623L15.656 16.3866L16.52 15.5582ZM1.24394 7.01312C1.24394 5.97031 1.56647 4.95092 2.17075 4.08385C2.77503 3.21678 3.63392 2.54099 4.6388 2.14192C5.64368 1.74285 6.74942 1.63844 7.8162 1.84188C8.88297 2.04532 9.86287 2.54749 10.632 3.28487C11.4011 4.02225 11.9248 4.96173 12.137 5.9845C12.3492 7.00728 12.2403 8.06741 11.8241 9.03084C11.4079 9.99428 10.703 10.8177 9.79861 11.3971C8.89424 11.9764 7.83099 12.2857 6.74332 12.2857C5.28529 12.2841 3.88744 11.7281 2.85645 10.7397C1.82547 9.75121 1.24555 8.41102 1.24394 7.01312Z" fill="#959AA2"/>
</svg>
