<svg width="14" height="14" viewBox="0 0 14 14" fill="none" xmlns="http://www.w3.org/2000/svg">
<path fill-rule="evenodd" clip-rule="evenodd" d="M3.85783 2.03956C2.19837 2.83051 0.836183 3.49024 0.830786 3.50562C0.825389 3.521 0.876004 3.55452 0.943256 3.58009C1.01051 3.60564 1.36676 3.76268 1.73495 3.92904C2.10312 4.09543 2.80671 4.41231 3.29849 4.63324C3.79026 4.8542 4.24921 5.0606 4.31838 5.09196C4.38755 5.1233 4.457 5.14896 4.47278 5.14896C4.48856 5.14896 4.85586 4.95555 5.28907 4.71914C5.72228 4.48274 6.18448 4.23202 6.31621 4.16201C6.44794 4.09197 6.63178 3.99189 6.72477 3.93962C6.81776 3.88733 6.90542 3.84455 6.9196 3.84455C6.93377 3.84455 7.06608 3.918 7.21358 4.00779C7.4609 4.15828 8.72557 4.91942 9.06531 5.12218C9.24376 5.22871 9.27221 5.22953 9.48492 5.1341C9.67783 5.04758 12.4738 3.90932 13.0142 3.69731C13.2118 3.6198 13.3733 3.54955 13.3732 3.5412C13.373 3.53286 13.276 3.48199 13.1577 3.42818C13.0393 3.37436 12.6766 3.209 12.3517 3.06073C12.0267 2.91245 11.6028 2.71937 11.4096 2.63167C10.9044 2.4023 10.5573 2.24414 8.65311 1.37546C7.71666 0.948254 6.93349 0.599341 6.91273 0.600099C6.892 0.600857 5.5173 1.24863 3.85783 2.03956ZM0.600098 7.60807V10.8256L0.86355 10.9416C1.00846 11.0054 1.39285 11.174 1.71777 11.3163C2.0427 11.4586 2.45225 11.639 2.62788 11.7172C2.80352 11.7953 3.0981 11.9249 3.28252 12.005C3.46694 12.0851 3.84056 12.249 4.11279 12.3693C4.38503 12.4895 4.77302 12.66 4.975 12.7482C5.17698 12.8364 5.59285 13.0191 5.89919 13.1543C6.20553 13.2895 6.4679 13.4001 6.48223 13.4001C6.49657 13.4001 6.50462 12.6006 6.50008 11.6236L6.49185 9.84701L5.25758 9.20752L4.02331 8.56803L4.02814 7.21699L4.03296 5.86599L3.63379 5.69378C3.41425 5.59904 2.83226 5.34693 2.34048 5.13349C1.04452 4.57102 0.624591 4.39059 0.611594 4.39059C0.605271 4.39059 0.600098 5.83845 0.600098 7.60807ZM12.7508 4.66612C12.3996 4.81728 11.9467 5.01418 11.7445 5.1037C11.5423 5.19319 11.2621 5.31408 11.1218 5.37226C10.9815 5.43047 10.6656 5.56625 10.4197 5.67403L9.97261 5.86997V7.22452V8.5791L9.71714 8.70972C9.37778 8.88327 7.76944 9.71973 7.61776 9.80157L7.49823 9.86606L7.49801 11.6331C7.49785 12.605 7.50966 13.4001 7.52423 13.4001C7.53879 13.4001 7.76513 13.3062 8.02718 13.1915C8.77209 12.8654 10.1982 12.2374 10.5155 12.0957C10.6735 12.0251 10.8604 11.9434 10.9306 11.9141C11.0489 11.8649 11.5776 11.6322 12.2718 11.3238C12.4299 11.2536 12.7439 11.1163 12.9696 11.0186C13.1953 10.9208 13.3858 10.8263 13.393 10.8085C13.4001 10.7907 13.4022 9.33954 13.3977 7.58371L13.3895 4.39134L12.7508 4.66612Z" fill="#AEBCD2"/>
</svg>
