<svg width="15" height="12" viewBox="0 0 15 12" fill="none" xmlns="http://www.w3.org/2000/svg">
<path d="M14.1999 1.72504C13.6993 1.94991 13.1623 2.10241 12.5979 2.1705C13.1741 1.82068 13.6152 1.26581 13.8243 0.606681C13.2838 0.930637 12.6872 1.16587 12.0515 1.29339C11.5424 0.742829 10.8184 0.399902 10.0152 0.399902C8.47449 0.399902 7.22522 1.66646 7.22522 3.22769C7.22522 3.44911 7.24987 3.66537 7.29747 3.87218C4.97911 3.75412 2.92335 2.62801 1.54746 0.916849C1.30694 1.33388 1.17012 1.8198 1.17012 2.3385C1.17012 3.31988 1.66303 4.18579 2.4109 4.6924C1.95368 4.6769 1.52366 4.54938 1.14719 4.33742V4.37274C1.14719 5.74269 2.10921 6.88603 3.38481 7.14625C3.1511 7.21001 2.90466 7.24534 2.6497 7.24534C2.46955 7.24534 2.29532 7.22725 2.1245 7.19278C2.47972 8.31717 3.50975 9.13483 4.73013 9.15724C3.77575 9.91546 2.57237 10.3661 1.26532 10.3661C1.04012 10.3661 0.8183 10.3523 0.599899 10.3273C1.83472 11.1312 3.3007 11.5999 4.87631 11.5999C10.0085 11.5999 12.8138 7.29015 12.8138 3.55252L12.8045 3.18635C13.3526 2.78998 13.8268 2.29198 14.1999 1.72504Z" fill="#242635"/>
</svg>
