<svg width="38" height="24" viewBox="0 0 38 24" fill="none" xmlns="http://www.w3.org/2000/svg">
<path fill-rule="evenodd" clip-rule="evenodd" d="M37.1292 2.4175C37.392 1.553 37.1292 0.916504 35.8704 0.916504H31.7142C30.6565 0.916504 30.1688 1.46592 29.9044 2.07234C29.9044 2.07234 27.7907 7.13267 24.7966 10.4197C23.8276 11.3728 23.3874 11.6753 22.8586 11.6753C22.5942 11.6753 22.1968 11.3728 22.1968 10.5068V2.4175C22.1968 1.37884 21.9054 0.916504 21.0251 0.916504H14.4891C13.8288 0.916504 13.4314 1.39784 13.4314 1.85542C13.4314 2.83867 14.9293 3.06667 15.0828 5.83434V11.8478C15.0828 13.1668 14.8406 13.4058 14.3117 13.4058C12.9026 13.4058 9.47467 8.32175 7.44008 2.50459C7.04583 1.3725 6.64683 0.916504 5.58442 0.916504H1.425C0.2375 0.916504 0 1.46592 0 2.07234C0 3.15217 1.40917 8.51651 6.56292 15.6114C9.99875 20.4564 14.8358 23.0832 19.2423 23.0832C21.8848 23.0832 22.211 22.5005 22.211 21.4951V17.8328C22.211 16.6659 22.4612 16.4332 23.2987 16.4332C23.9163 16.4332 24.9723 16.7372 27.4392 19.0726C30.2575 21.8418 30.7214 23.0832 32.3079 23.0832H36.4642C37.6517 23.0832 38.247 22.5005 37.905 21.3478C37.5282 20.2015 36.1823 18.5374 34.3979 16.563C33.4289 15.4388 31.9754 14.2276 31.5337 13.6212C30.9178 12.8438 31.0935 12.497 31.5337 11.8051C31.5337 11.8051 36.6003 4.79725 37.1276 2.4175H37.1292Z" fill="black"/>
</svg>
