<svg width="14" height="8" viewBox="0 0 14 8" fill="none" xmlns="http://www.w3.org/2000/svg">
<path d="M13.386 0.570048C13.4793 0.260048 13.386 0.0327148 12.9446 0.0327148H11.4826C11.1106 0.0327148 10.9406 0.229382 10.8473 0.445382C10.8473 0.445382 10.104 2.25805 9.05065 3.43338C8.71065 3.77538 8.55531 3.88338 8.36998 3.88338C8.27731 3.88338 8.14265 3.77538 8.14265 3.46538V0.570048C8.14265 0.198048 8.03531 0.0327148 7.72531 0.0327148H5.42798C5.19598 0.0327148 5.05598 0.204715 5.05598 0.368715C5.05598 0.720715 5.58265 0.802048 5.63665 1.79405V3.94605C5.63665 4.41738 5.55198 4.50338 5.36531 4.50338C4.86998 4.50338 3.66465 2.68405 2.94931 0.601382C2.80998 0.196715 2.66931 0.0333818 2.29598 0.0333818H0.834646C0.416646 0.0333818 0.333313 0.230048 0.333313 0.446048C0.333313 0.834048 0.828646 2.75405 2.64065 5.29338C3.84865 7.02738 5.54931 7.96738 7.09865 7.96738C8.02731 7.96738 8.14198 7.75871 8.14198 7.39871V6.08805C8.14198 5.67071 8.23065 5.58671 8.52465 5.58671C8.74065 5.58671 9.11265 5.69605 9.97998 6.53138C10.9706 7.52205 11.1346 7.96671 11.6913 7.96671H13.1526C13.57 7.96671 13.7786 7.75805 13.6586 7.34605C13.5273 6.93605 13.054 6.33938 12.426 5.63338C12.0846 5.23071 11.5746 4.79738 11.4193 4.58071C11.2026 4.30138 11.2653 4.17805 11.4193 3.93005C11.42 3.93072 13.2006 1.42271 13.386 0.570048Z" fill="#AEBCD2"/>
</svg>
