<svg width="22" height="22" viewBox="0 0 22 22" fill="none" xmlns="http://www.w3.org/2000/svg">
<circle cx="11" cy="11" r="11" fill="#111423"/>
<path d="M14.0927 11.255C14.6474 11.4197 15.0721 11.6883 15.3667 12.061C15.6614 12.4337 15.8087 12.893 15.8087 13.439C15.8087 14.245 15.5011 14.8733 14.8857 15.324C14.2791 15.7747 13.4081 16 12.2727 16H7.78774V6.9H12.0257C13.0831 6.9 13.9064 7.10367 14.4957 7.511C15.0851 7.91833 15.3797 8.499 15.3797 9.253C15.3797 9.70367 15.2671 10.1023 15.0417 10.449C14.8164 10.787 14.5001 11.0557 14.0927 11.255ZM9.88074 10.67H11.8437C12.3031 10.67 12.6497 10.579 12.8837 10.397C13.1177 10.2063 13.2347 9.929 13.2347 9.565C13.2347 9.20967 13.1134 8.93667 12.8707 8.746C12.6367 8.55533 12.2944 8.46 11.8437 8.46H9.88074V10.67ZM12.1947 14.44C13.1827 14.44 13.6767 14.05 13.6767 13.27C13.6767 12.516 13.1827 12.139 12.1947 12.139H9.88074V14.44H12.1947Z" fill="#D5AB08"/>
</svg>
